<svg width="350" height="448" viewBox="0 0 350 448" fill="none" xmlns="http://www.w3.org/2000/svg">
<rect x="141" y="260" width="68.2139" height="128.131" rx="13.7769" fill="white" stroke="#323232" stroke-width="4" stroke-linecap="round"/>
<path d="M142.896 342.634V301.678H211.5C206.333 322.68 175.523 343.768 142.896 342.634Z" fill="#7E7E7E" fill-opacity="0.45"/>
<rect x="141" y="185" width="68.2139" height="128.131" rx="13.7769" fill="white" stroke="#323232" stroke-width="4" stroke-linecap="round"/>
<path d="M142.896 267.634V226.678H211.5C206.333 247.68 175.523 268.768 142.896 267.634Z" fill="#7E7E7E" fill-opacity="0.45"/>
<path d="M134.268 205.03C134.268 216.719 123.718 226.53 110.268 226.53C96.8182 226.53 86.2681 216.719 86.2681 205.03C86.2681 193.342 96.8182 183.53 110.268 183.53C123.718 183.53 134.268 193.342 134.268 205.03Z" fill="white" stroke="#323232" stroke-width="4"/>
<path d="M217.268 205.03C217.268 216.719 227.818 226.53 241.268 226.53C254.718 226.53 265.268 216.719 265.268 205.03C265.268 193.342 254.718 183.53 241.268 183.53C227.818 183.53 217.268 193.342 217.268 205.03Z" fill="white" stroke="#323232" stroke-width="4"/>
<g clip-path="url(#clip0_101_114)">
<path d="M242.268 200.862C242.268 221.202 236.341 236.701 225.321 247.13C214.284 257.575 197.851 263.208 176.298 263.208C154.745 263.208 138.036 257.575 126.729 247.115C115.446 236.676 109.268 221.178 109.268 200.862C109.268 180.538 115.453 163.926 126.796 152.403C138.133 140.885 154.836 134.233 176.298 134.233C197.759 134.233 214.186 140.883 225.254 152.386C236.334 163.902 242.268 180.515 242.268 200.862Z" fill="white" stroke="#323232" stroke-width="4" stroke-linecap="round"/>
<path d="M175.11 199.208C173.243 207.596 172.268 211.979 172.268 220.706C174.769 222.26 177.16 222.649 181.268 222.605" stroke="#323232" stroke-width="4" stroke-linecap="round" stroke-linejoin="round"/>
<path d="M140.036 208.28C142.097 208.28 143.925 207.165 145.221 205.437C146.517 203.71 147.303 201.346 147.303 198.756C147.303 196.167 146.517 193.803 145.221 192.076C143.925 190.348 142.097 189.233 140.036 189.233C137.974 189.233 136.146 190.348 134.85 192.076C133.555 193.803 132.768 196.167 132.768 198.756C132.768 201.346 133.555 203.71 134.85 205.437C136.146 207.165 137.974 208.28 140.036 208.28Z" fill="#323232" stroke="#323232" stroke-linecap="round"/>
<circle cx="142.884" cy="196.542" r="2.5" fill="white" stroke="#323232"/>
<path d="M212.036 208.28C214.097 208.28 215.925 207.165 217.221 205.437C218.517 203.71 219.303 201.346 219.303 198.756C219.303 196.167 218.517 193.803 217.221 192.076C215.925 190.348 214.097 189.233 212.036 189.233C209.974 189.233 208.146 190.348 206.85 192.076C205.555 193.803 204.768 196.167 204.768 198.756C204.768 201.346 205.555 203.71 206.85 205.437C208.146 207.165 209.974 208.28 212.036 208.28Z" fill="#323232" stroke="#323232" stroke-linecap="round"/>
<circle cx="214.884" cy="196.542" r="2" fill="white"/>
<g filter="url(#filter0_f_101_114)">
<ellipse cx="137.5" cy="222.5" rx="9.5" ry="5.5" fill="#FC9D80"/>
</g>
<g filter="url(#filter1_f_101_114)">
<ellipse cx="216.5" cy="222.5" rx="9.5" ry="5.5" fill="#FC9D80"/>
</g>
</g>
<g filter="url(#filter2_d_101_114)">
<path d="M104.394 135.192C108.008 126.632 112.828 118.289 119.699 111.677C126.571 105.066 134.781 99.7799 143.863 96.1223C152.945 92.4646 162.719 90.5066 172.629 90.36C182.538 90.2134 192.389 91.8812 201.618 95.268C210.846 98.6548 219.273 103.694 226.416 110.099C233.559 116.504 239.279 124.148 243.249 132.595C247.218 141.042 249.361 150.127 249.553 159.331C249.745 168.535 245.008 199.132 241.394 207.692C212.394 179.692 167.532 148.829 104.394 135.192Z" fill="#323232"/>
</g>
<path fill-rule="evenodd" clip-rule="evenodd" d="M242.498 132.555C242.83 133.261 243.149 133.972 243.456 134.688C244.024 136.015 244.549 137.356 245.029 138.709L168.112 90.1566C170.18 90.0386 172.256 89.9997 174.336 90.0407C174.617 90.0463 174.899 90.0533 175.18 90.0618L242.498 132.555ZM153.068 92.4535L248.328 152.584C248.53 154.187 248.672 155.797 248.755 157.41L148.104 93.8764C149.742 93.3484 151.397 92.874 153.068 92.4535ZM133.879 100.086L247.69 172.547C247.504 173.799 247.298 175.103 247.076 176.44L130.203 102.294C131.405 101.525 132.631 100.789 133.879 100.086ZM121.328 108.963L245.042 187.422C244.752 188.843 244.453 190.257 244.147 191.647L118.424 111.692C119.16 110.947 119.919 110.222 120.702 109.519C120.91 109.332 121.118 109.147 121.328 108.963Z" fill="white" fill-opacity="0.19"/>
<g filter="url(#filter3_d_101_114)">
<path d="M244.268 134.733C240.654 126.173 236.334 117.331 229.462 110.719C222.591 104.107 214.38 98.8211 205.299 95.1635C196.217 91.5058 186.442 89.5478 176.533 89.4012C166.623 89.2546 156.773 90.9224 147.544 94.3092C138.315 97.696 129.889 102.736 122.746 109.14C115.603 115.545 109.883 123.189 105.913 131.636C101.944 140.084 99.8013 149.169 99.6091 158.373C99.4169 167.577 104.154 198.173 107.768 206.733C136.768 178.733 181.13 148.37 244.268 134.733Z" fill="#323232"/>
</g>
<path fill-rule="evenodd" clip-rule="evenodd" d="M106.136 131.168C106.061 131.324 105.987 131.48 105.913 131.636C105.072 133.426 104.313 135.244 103.637 137.087L184.125 89.87C181.865 89.6236 179.59 89.4719 177.307 89.4164L106.136 131.168ZM198.704 92.8423L100.237 150.607C100.015 152.18 99.8496 153.762 99.7425 155.35L203.518 94.4714C201.932 93.8771 200.327 93.3339 198.704 92.8423ZM217.279 101.243L100.497 170.378C100.646 171.633 100.811 172.934 100.99 174.264L220.82 103.592C219.664 102.777 218.483 101.994 217.279 101.243ZM229.33 110.592L102.674 185.261C102.92 186.692 103.174 188.111 103.435 189.502L232.086 113.432C231.246 112.5 230.372 111.594 229.462 110.719C229.418 110.676 229.374 110.634 229.33 110.592Z" fill="white" fill-opacity="0.19"/>
<path d="M128.352 236.065C120.907 232.043 116.91 226.733 112.874 218.153C112.037 216.373 109.507 216.624 109.244 218.573C106.15 241.496 101.253 318.733 175.768 318.733C249.242 318.733 245.507 242.229 242.422 217.703C242.166 215.664 239.442 215.454 238.614 217.334C235.218 225.043 230.645 230.261 221.032 235.576C217.121 237.738 212.422 237.729 208.242 236.149C182.685 226.493 165.947 226.127 140.27 236.249C136.397 237.776 132.015 238.044 128.352 236.065Z" fill="#323232"/>
<ellipse cx="177.268" cy="253.733" rx="17" ry="12" fill="white"/>
<path d="M168.268 251.733C171.268 255.4 179.068 260.533 186.268 251.733" stroke="#323232" stroke-width="4" stroke-linecap="round" stroke-linejoin="round"/>
<path d="M164.609 199.611C173.886 195.905 178.93 195.813 187.609 199.611" stroke="#323232" stroke-width="4" stroke-linecap="round"/>
<path d="M118 194.799L110.109 187.135" stroke="#323232" stroke-width="4"/>
<path d="M232.049 190.439L240.609 186.635" stroke="#323232" stroke-width="4"/>
<path fill-rule="evenodd" clip-rule="evenodd" d="M142.769 177.07L146.355 180.657L116.657 210.355L115.255 208.953C115.093 208.311 114.956 207.658 114.843 206.994C114.509 205.031 114.41 203.081 114.525 201.173L138.657 177.041C140.045 176.942 141.419 176.954 142.769 177.07Z" fill="white" fill-opacity="0.15"/>
<path d="M164.001 198.631C166.189 211.493 157.426 223.749 144.376 225.969C131.326 228.189 119.003 219.521 116.814 206.659C114.626 193.797 123.39 181.541 136.44 179.321C149.49 177.101 161.813 185.769 164.001 198.631Z" fill="url(#paint0_linear_101_114)" fill-opacity="0.3" stroke="#323232" stroke-width="4"/>
<path fill-rule="evenodd" clip-rule="evenodd" d="M237.886 203.612C237.957 201.865 237.847 200.086 237.543 198.296C237.511 198.111 237.478 197.927 237.443 197.744L234.941 195.243L203.78 226.404L204.681 227.305C207.396 228.086 210.273 228.434 213.217 228.28L237.886 203.612Z" fill="white" fill-opacity="0.15"/>
<path d="M235.571 198.631C237.759 211.493 228.996 223.749 215.946 225.969C202.896 228.189 190.573 219.521 188.385 206.659C186.196 193.797 194.96 181.541 208.01 179.321C221.06 177.101 233.383 185.769 235.571 198.631Z" fill="url(#paint1_linear_101_114)" fill-opacity="0.3" stroke="#323232" stroke-width="4"/>
<path d="M141.18 335.032C141.637 334.82 142.303 334.988 142.637 335.566C158.781 363.54 197.874 361.35 210.064 335.821C210.396 335.127 211.144 334.922 211.623 335.139C238.582 347.357 256.284 360.353 268.373 377.321C280.476 394.308 287.102 415.482 291.512 444.356C291.604 444.958 291.132 445.5 290.538 445.5H60.4712C59.8782 445.5 59.4054 444.956 59.5001 444.354C64.2635 414.036 72.0978 392.611 84.931 375.851C97.765 359.091 115.747 346.803 141.18 335.032Z" fill="white" stroke="#323232" stroke-width="4" stroke-linecap="round" stroke-linejoin="round"/>
<path d="M114.838 349.178L114.838 408.178" stroke="#323232" stroke-width="4"/>
<path d="M129.838 342.178L129.838 401.178" stroke="#323232" stroke-width="4"/>
<line x1="234.838" y1="347.178" x2="234.838" y2="408.178" stroke="#323232" stroke-width="4"/>
<line x1="219.838" y1="339.178" x2="219.838" y2="400.178" stroke="#323232" stroke-width="4"/>
<path d="M102.838 401.178C102.838 395.655 107.315 391.178 112.838 391.178H237.838C243.361 391.178 247.838 395.655 247.838 401.178V445.178H102.838V401.178Z" fill="white" stroke="#323232" stroke-width="4"/>
<circle cx="120.792" cy="406.647" r="9" fill="#323232"/>
<circle cx="226.792" cy="406.647" r="9" fill="#323232"/>
<defs>
<filter id="filter0_f_101_114" x="116" y="205" width="43" height="35" filterUnits="userSpaceOnUse" color-interpolation-filters="sRGB">
<feFlood flood-opacity="0" result="BackgroundImageFix"/>
<feBlend mode="normal" in="SourceGraphic" in2="BackgroundImageFix" result="shape"/>
<feGaussianBlur stdDeviation="6" result="effect1_foregroundBlur_101_114"/>
</filter>
<filter id="filter1_f_101_114" x="195" y="205" width="43" height="35" filterUnits="userSpaceOnUse" color-interpolation-filters="sRGB">
<feFlood flood-opacity="0" result="BackgroundImageFix"/>
<feBlend mode="normal" in="SourceGraphic" in2="BackgroundImageFix" result="shape"/>
<feGaussianBlur stdDeviation="6" result="effect1_foregroundBlur_101_114"/>
</filter>
<filter id="filter2_d_101_114" x="100.394" y="90.3511" width="153.165" height="125.34" filterUnits="userSpaceOnUse" color-interpolation-filters="sRGB">
<feFlood flood-opacity="0" result="BackgroundImageFix"/>
<feColorMatrix in="SourceAlpha" type="matrix" values="0 0 0 0 0 0 0 0 0 0 0 0 0 0 0 0 0 0 127 0" result="hardAlpha"/>
<feOffset dy="4"/>
<feGaussianBlur stdDeviation="2"/>
<feColorMatrix type="matrix" values="0 0 0 0 0.0336111 0 0 0 0 0.0811904 0 0 0 0 0.366667 0 0 0 0.15 0"/>
<feBlend mode="normal" in2="BackgroundImageFix" result="effect1_dropShadow_101_114"/>
<feBlend mode="normal" in="SourceGraphic" in2="effect1_dropShadow_101_114" result="shape"/>
</filter>
<filter id="filter3_d_101_114" x="95.6034" y="89.3923" width="152.665" height="125.34" filterUnits="userSpaceOnUse" color-interpolation-filters="sRGB">
<feFlood flood-opacity="0" result="BackgroundImageFix"/>
<feColorMatrix in="SourceAlpha" type="matrix" values="0 0 0 0 0 0 0 0 0 0 0 0 0 0 0 0 0 0 127 0" result="hardAlpha"/>
<feOffset dy="4"/>
<feGaussianBlur stdDeviation="2"/>
<feColorMatrix type="matrix" values="0 0 0 0 0.0336111 0 0 0 0 0.0811904 0 0 0 0 0.366667 0 0 0 0.15 0"/>
<feBlend mode="normal" in2="BackgroundImageFix" result="effect1_dropShadow_101_114"/>
<feBlend mode="normal" in="SourceGraphic" in2="effect1_dropShadow_101_114" result="shape"/>
</filter>
<linearGradient id="paint0_linear_101_114" x1="136.104" y1="177.349" x2="160.109" y2="226.635" gradientUnits="userSpaceOnUse">
<stop stop-color="white"/>
<stop offset="1" stop-color="#C0C8FE" stop-opacity="0"/>
</linearGradient>
<linearGradient id="paint1_linear_101_114" x1="207.674" y1="177.349" x2="231.679" y2="226.635" gradientUnits="userSpaceOnUse">
<stop stop-color="white"/>
<stop offset="1" stop-color="#C0C8FE" stop-opacity="0"/>
</linearGradient>
<clipPath id="clip0_101_114">
<rect width="137" height="190" fill="white" transform="translate(107.268 75.5303)"/>
</clipPath>
</defs>
</svg>
